# xmcd CD database file generated by LOLA_Freedb v0.9beta0
# 
# Track frame offsets:
#      150
#      17292
#      41734
#      62109
#      81170
#      99580
#      123123
#      137102
#      165194
#      181138
#      194971
#      213795
# 
# Disc length: 3093 seconds
# 
# Revision: 0 
# Processed by: cddbd v1.5.2PL0 Copyright (c) Steve Scherf et al.
# Submitted via: LOLA_Freedb v0.9beta0
# 
DISCID=9a0c130c
DTITLE=SongDogs - Home Town Queens and Bus Stop
DYEAR=2006
DGENRE=
TTITLE0=SongDogs - Travelin' Light
TTITLE1=SongDogs - Sadness Is My Middle Name
TTITLE2=SongDogs - Hometown, Small Town
TTITLE3=SongDogs - Gone
TTITLE4=SongDogs - Trouble Down The Line
TTITLE5=SongDogs - Dryland
TTITLE6=SongDogs - Berlin Breakdown # 1
TTITLE7=SongDogs - Dark River
TTITLE8=SongDogs - Silver and Gold
TTITLE9=SongDogs - Does This Bus Stop At The Road Of Hope
TTITLE10=SongDogs - Queen Of Misfits
TTITLE11=SongDogs - Boxcar Hobo Blues
EXTD=
EXTT0=
EXTT1=
EXTT2=
EXTT3=
EXTT4=
EXTT5=
EXTT6=
EXTT7=
EXTT8=
EXTT9=
EXTT10=
EXTT11=
PLAYORDER=
